<svg width="24" height="24" viewBox="0 0 24 24" fill="none" xmlns="http://www.w3.org/2000/svg">
<path d="M10.5802 11.2866H4.88683C3.94443 11.2866 3.04062 10.9122 2.37424 10.2458C1.70786 9.57946 1.3335 8.67565 1.3335 7.73325V4.88659C1.3335 3.94418 1.70786 3.04038 2.37424 2.374C3.04062 1.70762 3.94443 1.33325 4.88683 1.33325H7.7335C8.6759 1.33325 9.5797 1.70762 10.2461 2.374C10.9125 3.04038 11.2868 3.94418 11.2868 4.88659V10.5733C11.2868 10.7613 11.2126 10.9417 11.0803 11.0753C10.9479 11.2089 10.7682 11.2848 10.5802 11.2866ZM4.88683 2.75325C4.32103 2.75325 3.77841 2.97801 3.37833 3.37809C2.97826 3.77817 2.7535 4.32079 2.7535 4.88659V7.73325C2.7535 8.29905 2.97826 8.84167 3.37833 9.24175C3.77841 9.64182 4.32103 9.86659 4.88683 9.86659H9.86683V4.88659C9.86683 4.32079 9.64207 3.77817 9.24199 3.37809C8.84191 2.97801 8.29929 2.75325 7.7335 2.75325H4.88683Z" fill="#8C8FA5"/>
<path d="M19.1132 11.2866H13.4199C13.2307 11.2866 13.0492 11.2114 12.9155 11.0777C12.7817 10.9439 12.7065 10.7624 12.7065 10.5733V4.88659C12.7065 4.4194 12.7987 3.95679 12.9777 3.52525C13.1566 3.0937 13.419 2.70169 13.7496 2.37165C14.0803 2.0416 14.4728 1.78 14.9047 1.60182C15.3366 1.42364 15.7994 1.33238 16.2665 1.33326H19.1132C20.0556 1.33326 20.9594 1.70763 21.6258 2.37401C22.2922 3.04038 22.6665 3.94419 22.6665 4.88659V7.73326C22.6665 8.67566 22.2922 9.57947 21.6258 10.2458C20.9594 10.9122 20.0556 11.2866 19.1132 11.2866ZM14.1332 9.86659H19.1132C19.679 9.86659 20.2216 9.64183 20.6217 9.24175C21.0218 8.84168 21.2465 8.29905 21.2465 7.73326V4.88659C21.2465 4.3208 21.0218 3.77817 20.6217 3.3781C20.2216 2.97802 19.679 2.75326 19.1132 2.75326H16.2665C15.7007 2.75326 15.1581 2.97802 14.758 3.3781C14.358 3.77817 14.1332 4.3208 14.1332 4.88659V9.86659Z" fill="#8C8FA5"/>
<path d="M7.7335 22.6667H4.88683C3.94443 22.6667 3.04062 22.2923 2.37424 21.626C1.70786 20.9596 1.3335 20.0558 1.3335 19.1134V16.2667C1.3335 15.3243 1.70786 14.4205 2.37424 13.7541C3.04062 13.0877 3.94443 12.7134 4.88683 12.7134H10.5735C10.7627 12.7134 10.9441 12.7885 11.0779 12.9223C11.2117 13.0561 11.2868 13.2375 11.2868 13.4267V19.1134C11.2868 20.0558 10.9125 20.9596 10.2461 21.626C9.5797 22.2923 8.6759 22.6667 7.7335 22.6667ZM4.88683 14.1334C4.32103 14.1334 3.77841 14.3581 3.37833 14.7582C2.97826 15.1583 2.7535 15.7009 2.7535 16.2667V19.1134C2.7535 19.6792 2.97826 20.2218 3.37833 20.6219C3.77841 21.022 4.32103 21.2467 4.88683 21.2467H7.7335C8.29929 21.2467 8.84191 21.022 9.24199 20.6219C9.64207 20.2218 9.86683 19.6792 9.86683 19.1134V14.1334H4.88683Z" fill="#8C8FA5"/>
<path d="M19.1134 22.6668H16.2667C15.3243 22.6668 14.4205 22.2924 13.7541 21.626C13.0877 20.9597 12.7134 20.0559 12.7134 19.1135V13.4201C12.7134 13.2309 12.7885 13.0495 12.9223 12.9157C13.0561 12.7819 13.2375 12.7068 13.4267 12.7068H19.1134C19.5806 12.7068 20.0432 12.7989 20.4747 12.9779C20.9063 13.1569 21.2983 13.4192 21.6283 13.7499C21.9584 14.0806 22.22 14.4731 22.3981 14.9049C22.5763 15.3368 22.6676 15.7996 22.6667 16.2668V19.1135C22.6667 20.0559 22.2923 20.9597 21.626 21.626C20.9596 22.2924 20.0558 22.6668 19.1134 22.6668ZM14.1334 14.1335V19.1135C14.1334 19.6792 14.3581 20.2219 14.7582 20.6219C15.1583 21.022 15.7009 21.2468 16.2667 21.2468H19.1134C19.6792 21.2468 20.2218 21.022 20.6219 20.6219C21.022 20.2219 21.2467 19.6792 21.2467 19.1135V16.2668C21.2467 15.701 21.022 15.1584 20.6219 14.7583C20.2218 14.3582 19.6792 14.1335 19.1134 14.1335H14.1334Z" fill="#8C8FA5"/>
</svg>
