<svg width="24" height="24" viewBox="0 0 24 24" fill="none" xmlns="http://www.w3.org/2000/svg">
<path fill-rule="evenodd" clip-rule="evenodd" d="M5.3637 18.6364C5.01223 18.2849 5.01223 17.7151 5.3637 17.3636L10.7273 12L5.3637 6.63642C5.01223 6.28495 5.01223 5.7151 5.3637 5.36363C5.71517 5.01216 6.28502 5.01216 6.63649 5.36363L12.0001 10.7272L17.3637 5.36363C17.7152 5.01216 18.285 5.01216 18.6365 5.36363C18.988 5.7151 18.988 6.28495 18.6365 6.63642L13.2729 12L18.6365 17.3636C18.988 17.7151 18.988 18.2849 18.6365 18.6364C18.285 18.9879 17.7152 18.9879 17.3637 18.6364L12.0001 13.2728L6.63649 18.6364C6.28502 18.9879 5.71517 18.9879 5.3637 18.6364Z" fill="#344054"/>
</svg>
