<svg width="25" height="25" viewBox="0 0 25 25" fill="none" xmlns="http://www.w3.org/2000/svg">
<path fill-rule="evenodd" clip-rule="evenodd" d="M12.8175 3.47461C11.9867 3.77155 11.3557 4.26494 10.9076 5.00725C10.4761 5.73979 10.3107 6.55457 10.3107 7.47482V10.5332H7.15079V13.0592H10.3107V21.9314H13.1098L13.11 13.0337H16.743L16.7439 10.4822H13.11V9.66737C13.11 9.42106 13.1072 9.17051 13.1043 8.91744C13.0985 8.4032 13.0925 7.87856 13.1101 7.35798C13.1126 6.87586 13.241 6.37114 13.6361 5.99556C14.0249 5.62601 14.5322 5.51525 14.999 5.51278C15.6207 5.49076 16.2406 5.48773 16.8492 5.48731V3.19066H14.5674C13.9423 3.19066 13.3787 3.27938 12.8175 3.47461ZM12.265 1.93895C13.0195 1.67598 13.7716 1.56104 14.5674 1.56104H17.148C17.4241 1.56104 17.8172 1.61477 18.1275 1.91522C18.4415 2.21924 18.5 2.60952 18.5 2.88575V5.79216C18.5 6.06839 18.4415 6.45867 18.1275 6.76268C17.8172 7.06313 17.4241 7.11687 17.148 7.11687C16.4345 7.11687 15.7385 7.11696 15.045 7.14183L15.03 7.14236H15.015C14.8796 7.14236 14.8126 7.16044 14.7856 7.17085C14.7759 7.19676 14.7608 7.25653 14.7608 7.37284V7.38668L14.7603 7.40051C14.7435 7.89019 14.7489 8.35404 14.7546 8.84851C14.7546 8.84986 14.7547 8.85121 14.7547 8.85256H16.99C17.266 8.85256 17.6874 8.8954 18.0156 9.21312C18.348 9.53495 18.3947 9.9534 18.3947 10.2283V13.3131C18.3947 13.5521 18.369 13.9954 18.0142 14.3262C17.675 14.6424 17.2353 14.6633 16.99 14.6633H14.7608V22.1598C14.7608 22.4057 14.7367 22.8481 14.3985 23.1872C14.0583 23.5283 13.6058 23.561 13.3298 23.561H10.0382C9.76268 23.561 9.35529 23.5131 9.03569 23.2037C8.7121 22.8904 8.65987 22.4858 8.65987 22.2108V14.6888H6.87837C6.6055 14.6888 6.17991 14.6473 5.85493 14.3206C5.5325 13.9964 5.5 13.5816 5.5 13.3386V10.2538C5.5 9.98185 5.54544 9.55918 5.88703 9.24071C6.21689 8.93316 6.63404 8.90355 6.87837 8.90355H8.65987V7.47482C8.65987 6.3568 8.8626 5.23498 9.48306 4.18371L9.48681 4.17736C10.144 3.08665 11.0914 2.35757 12.2593 1.94096L12.265 1.93895Z" fill="#344054"/>
</svg>
