<svg width="24" height="24" viewBox="0 0 24 24" fill="none" xmlns="http://www.w3.org/2000/svg">
<path d="M16.6406 2C15.7705 2.001 14.9099 2.17794 14.1118 2.51992C13.3136 2.8619 12.5949 3.36166 12 3.98837C11.1282 3.06989 9.99672 2.43133 8.75257 2.15558C7.50843 1.87984 6.20903 1.97965 5.02308 2.44205C3.83712 2.90445 2.81938 3.7081 2.10197 4.74865C1.38457 5.78921 1.00063 7.01862 1 8.27728C1 14.5274 11.2128 20.6622 11.6562 20.9031C11.7632 20.9665 11.8856 21 12.0103 21C12.1351 21 12.2574 20.9665 12.3644 20.9031C12.7872 20.6622 23 14.5274 23 8.27728C22.9982 6.61299 22.3276 5.01738 21.1354 3.84056C19.9432 2.66373 18.3267 2.0018 16.6406 2ZM12 19.5221C10.2228 18.4024 2.375 13.1702 2.375 8.27728C2.37588 7.23218 2.71389 6.2145 3.34003 5.37174C3.96617 4.52899 4.84791 3.90493 5.85747 3.59002C6.86703 3.27511 7.95196 3.2857 8.95501 3.62027C9.95806 3.95483 10.8271 4.59598 11.4363 5.45081C11.4997 5.53972 11.5839 5.61228 11.6817 5.66236C11.7795 5.71245 11.8881 5.73859 11.9983 5.73859C12.1085 5.73859 12.217 5.71245 12.3149 5.66236C12.4127 5.61228 12.4969 5.53972 12.5603 5.45081C13.1689 4.59451 14.0382 3.95198 15.0419 3.61647C16.0456 3.28096 17.1315 3.26995 18.142 3.58503C19.1525 3.90011 20.0349 4.52488 20.6613 5.36865C21.2876 6.21241 21.6252 7.23126 21.625 8.27728C21.625 13.1668 13.7772 18.399 12 19.5221Z" fill="#8C8FA5"/>
</svg>
