<svg width="24" height="24" viewBox="0 0 24 24" fill="none" xmlns="http://www.w3.org/2000/svg">
<g clip-path="url(#clip0_1_2629)">
<path d="M20.076 12C19.4565 11.9949 18.8386 12.065 18.236 12.2088C18.3636 11.6965 18.5906 11.2143 18.904 10.7896C19.1114 10.5506 19.2164 10.2396 19.1963 9.92388C19.1762 9.60812 19.0325 9.31299 18.7964 9.10235C18.5575 8.8926 18.2459 8.78476 17.9284 8.80195C17.8161 8.81037 17.7055 8.83461 17.6 8.87395V4.39995C17.599 3.55155 17.2616 2.73817 16.6617 2.13826C16.0618 1.53835 15.2484 1.20091 14.4 1.19995H11.9644C11.0916 0.426844 9.96597 0 8.8 0C7.63403 0 6.5084 0.426844 5.6356 1.19995H3.2C2.3516 1.20091 1.53822 1.53835 0.938311 2.13826C0.338401 2.73817 0.000952843 3.55155 0 4.39995L0 18C0.000952843 18.8484 0.338401 19.6617 0.938311 20.2616C1.53822 20.8616 2.3516 21.199 3.2 21.2H11.2368C12.3428 22.8592 13.8168 24 15.0368 24C15.6454 24.026 16.251 23.9015 16.8 23.6376C17.3492 23.9016 17.9551 24.0261 18.564 24C20.8376 24 24 20.0352 24 16.132C24.0257 15.0642 23.6272 14.0298 22.8917 13.2553C22.1562 12.4808 21.1437 12.0294 20.076 12ZM17.7008 9.73475C17.7356 9.6953 17.7778 9.66309 17.825 9.63996C17.8722 9.61683 17.9235 9.60323 17.976 9.59995H18C18.0976 9.59977 18.1917 9.63567 18.2644 9.70076C18.3436 9.77188 18.3914 9.87147 18.3974 9.97775C18.4034 10.084 18.3671 10.1884 18.2964 10.268C18.1852 10.4 17.2 11.634 17.2 14C17.2 14.106 17.1579 14.2078 17.0828 14.2828C17.0078 14.3578 16.9061 14.4 16.8 14.4C16.6939 14.4 16.5922 14.3578 16.5172 14.2828C16.4421 14.2078 16.4 14.106 16.4 14C16.4 11.2364 17.648 9.79395 17.7008 9.73475ZM14.4 1.99995C15.0363 2.00059 15.6464 2.25365 16.0964 2.7036C16.5463 3.15355 16.7994 3.76363 16.8 4.39995V9.61595C16.6717 9.81325 16.5546 10.0176 16.4492 10.228C16.446 10.2256 16.4432 10.2228 16.44 10.2208C16.2994 10.1316 16.1523 10.0531 16 9.98595V4.39995C16 3.97561 15.8314 3.56864 15.5314 3.26858C15.2313 2.96852 14.8243 2.79995 14.4 2.79995H13.16C13.0304 2.51885 12.874 2.25093 12.6928 1.99995H14.4ZM12.3784 12.1804C11.5583 12.4627 10.8482 12.9967 10.3493 13.7062C9.85043 14.4158 9.58821 15.2647 9.6 16.132C9.6084 17.0402 9.76347 17.9411 10.0592 18.8H3.2C2.98783 18.8 2.78434 18.7157 2.63431 18.5656C2.48429 18.4156 2.4 18.2121 2.4 18V4.39995C2.4 4.18778 2.48429 3.9843 2.63431 3.83427C2.78434 3.68424 2.98783 3.59995 3.2 3.59995H4.16C3.97179 4.31054 3.9493 5.05487 4.09426 5.77553C4.23923 6.49619 4.54778 7.17392 4.99611 7.75647C5.44445 8.33901 6.02059 8.8108 6.68011 9.13545C7.33963 9.4601 8.06491 9.62894 8.8 9.62894C9.5351 9.62894 10.2604 9.4601 10.9199 9.13545C11.5794 8.8108 12.1556 8.33901 12.6039 7.75647C13.0522 7.17392 13.3608 6.49619 13.5057 5.77553C13.6507 5.05487 13.6282 4.31054 13.44 3.59995H14.4C14.6122 3.59995 14.8157 3.68424 14.9657 3.83427C15.1157 3.9843 15.2 4.18778 15.2 4.39995V9.80475C15.0572 9.79635 14.9052 9.79435 14.7328 9.79235C14.526 9.79235 14.2816 9.78795 13.9728 9.77235C13.5761 9.77595 13.1854 9.67511 12.84 9.47995C12.7562 9.429 12.6604 9.40126 12.5623 9.39957C12.4642 9.39789 12.3675 9.42232 12.282 9.47036C12.1965 9.51841 12.1253 9.58833 12.0758 9.67296C12.0262 9.75759 12.0001 9.85388 12 9.95195C11.9937 10.7113 12.1218 11.4657 12.3784 12.1804ZM13.9356 10.5716C14.2556 10.5876 14.5088 10.5904 14.7248 10.5924C15.1779 10.5364 15.6361 10.6453 16.0156 10.8992C16.0533 10.9235 16.0893 10.9502 16.1236 10.9792C15.9628 11.414 15.8394 11.8617 15.7548 12.3176C15.0323 12.096 14.2796 11.9889 13.524 12C13.404 12 13.2888 12.008 13.1728 12.0188C12.9615 11.489 12.8398 10.9277 12.8128 10.358C13.1733 10.4884 13.5524 10.5606 13.9356 10.5716ZM5.7048 2.27035L6.2544 2.81995C6.32984 2.89282 6.43088 2.93313 6.53576 2.93222C6.64064 2.93131 6.74096 2.88924 6.81513 2.81508C6.88929 2.74092 6.93136 2.64059 6.93227 2.53571C6.93318 2.43084 6.89286 2.32979 6.82 2.25435L6.2704 1.70475C6.87747 1.20631 7.61843 0.898594 8.4 0.820354V1.59995C8.4 1.70604 8.44214 1.80778 8.51716 1.8828C8.59217 1.95781 8.69391 1.99995 8.8 1.99995C8.90609 1.99995 9.00783 1.95781 9.08284 1.8828C9.15786 1.80778 9.2 1.70604 9.2 1.59995V0.820354C9.98158 0.898594 10.7225 1.20631 11.3296 1.70475L10.78 2.25435C10.7418 2.29125 10.7113 2.33539 10.6904 2.38419C10.6694 2.43299 10.6584 2.48548 10.6579 2.53859C10.6574 2.5917 10.6676 2.64438 10.6877 2.69354C10.7078 2.74269 10.7375 2.78735 10.775 2.82491C10.8126 2.86247 10.8573 2.89217 10.9064 2.91228C10.9556 2.93239 11.0082 2.94252 11.0614 2.94205C11.1145 2.94159 11.167 2.93056 11.2158 2.90959C11.2646 2.88863 11.3087 2.85816 11.3456 2.81995L11.8952 2.27035C12.3936 2.87742 12.7014 3.61838 12.7796 4.39995H12C11.8939 4.39995 11.7922 4.4421 11.7172 4.51711C11.6421 4.59213 11.6 4.69387 11.6 4.79995C11.6 4.90604 11.6421 5.00778 11.7172 5.0828C11.7922 5.15781 11.8939 5.19995 12 5.19995H12.7796C12.7014 5.98153 12.3936 6.72249 11.8952 7.32955L11.3456 6.77995C11.2702 6.70709 11.1691 6.66677 11.0642 6.66768C10.9594 6.6686 10.859 6.71066 10.7849 6.78483C10.7107 6.85899 10.6686 6.95931 10.6677 7.06419C10.6668 7.16907 10.7071 7.27011 10.78 7.34555L11.3296 7.89515C10.7225 8.3936 9.98158 8.70131 9.2 8.77955V7.99995C9.2 7.89387 9.15786 7.79213 9.08284 7.71711C9.00783 7.6421 8.90609 7.59995 8.8 7.59995C8.69391 7.59995 8.59217 7.6421 8.51716 7.71711C8.44214 7.79213 8.4 7.89387 8.4 7.99995V8.77955C7.61843 8.70131 6.87747 8.3936 6.2704 7.89515L6.82 7.34555C6.89286 7.27011 6.93318 7.16907 6.93227 7.06419C6.93136 6.95931 6.88929 6.85899 6.81513 6.78483C6.74096 6.71066 6.64064 6.6686 6.53576 6.66768C6.43088 6.66677 6.32984 6.70709 6.2544 6.77995L5.7048 7.32955C5.20635 6.72249 4.89864 5.98153 4.8204 5.19995H5.6C5.70609 5.19995 5.80783 5.15781 5.88284 5.0828C5.95786 5.00778 6 4.90604 6 4.79995C6 4.69387 5.95786 4.59213 5.88284 4.51711C5.80783 4.4421 5.70609 4.39995 5.6 4.39995H4.8204C4.89864 3.61838 5.20635 2.87742 5.7048 2.27035ZM3.2 20.4C2.56368 20.3993 1.9536 20.1463 1.50365 19.6963C1.0537 19.2464 0.800635 18.6363 0.8 18V4.39995C0.800635 3.76363 1.0537 3.15355 1.50365 2.7036C1.9536 2.25365 2.56368 2.00059 3.2 1.99995H4.9092C4.72804 2.25093 4.57157 2.51885 4.442 2.79995H3.2C2.77565 2.79995 2.36869 2.96852 2.06863 3.26858C1.76857 3.56864 1.6 3.97561 1.6 4.39995V18C1.6 18.4243 1.76857 18.8313 2.06863 19.1313C2.36869 19.4314 2.77565 19.6 3.2 19.6H10.3664C10.4864 19.874 10.6156 20.1416 10.7556 20.4H3.2ZM18.564 23.2C18.0258 23.2391 17.4884 23.1136 17.0232 22.84C16.9572 22.7956 16.8795 22.7719 16.8 22.7719C16.7205 22.7719 16.6428 22.7956 16.5768 22.84C16.1116 23.1136 15.5742 23.2391 15.036 23.2C13.3332 23.2 10.4 19.7076 10.4 16.132C10.3743 15.2764 10.6886 14.4454 11.2741 13.821C11.8595 13.1965 12.6685 12.8294 13.524 12.8C14.2444 12.7867 14.9616 12.8981 15.644 13.1292C15.6176 13.4068 15.6 13.6944 15.6 14C15.6 14.3182 15.7264 14.6234 15.9515 14.8485C16.1765 15.0735 16.4817 15.2 16.8 15.2C17.1183 15.2 17.4235 15.0735 17.6485 14.8485C17.8736 14.6234 18 14.3182 18 14C18 13.6973 18.0196 13.3949 18.0584 13.0948C18.7105 12.8879 19.3919 12.7884 20.076 12.8C20.9315 12.8294 21.7405 13.1965 22.3259 13.821C22.9114 14.4454 23.2257 15.2764 23.2 16.132C23.2 19.7076 20.2668 23.2 18.564 23.2Z" fill="#F24236"/>
<path d="M8.4 5.20005H9.2C9.30609 5.20005 9.40783 5.15791 9.48284 5.08289C9.55786 5.00788 9.6 4.90614 9.6 4.80005C9.6 4.69396 9.55786 4.59222 9.48284 4.51721C9.40783 4.44219 9.30609 4.40005 9.2 4.40005V3.20005C9.2 3.09396 9.15786 2.99222 9.08284 2.91721C9.00783 2.84219 8.90609 2.80005 8.8 2.80005C8.69391 2.80005 8.59217 2.84219 8.51716 2.91721C8.44214 2.99222 8.4 3.09396 8.4 3.20005V4.40005C8.29391 4.40005 8.19217 4.44219 8.11716 4.51721C8.04214 4.59222 8 4.69396 8 4.80005C8 4.90614 8.04214 5.00788 8.11716 5.08289C8.19217 5.15791 8.29391 5.20005 8.4 5.20005Z" fill="#F24236"/>
</g>
<defs>
<clipPath id="clip0_1_2629">
<rect width="24" height="24" fill="white"/>
</clipPath>
</defs>
</svg>
