<svg width="16" height="16" viewBox="0 0 16 16" fill="none" xmlns="http://www.w3.org/2000/svg">
<path d="M15.8388 4.96507L14.9104 11.6033C14.8873 11.9541 14.7883 12.2956 14.6204 12.6045C14.4525 12.9133 14.2197 13.182 13.9379 13.3921C13.9024 13.4167 13.861 13.4313 13.8179 13.4344C13.7748 13.4375 13.7318 13.4289 13.6931 13.4096C13.6545 13.3903 13.6218 13.361 13.5985 13.3247C13.5751 13.2884 13.5619 13.2465 13.5603 13.2033V6.55656C13.6004 6.12317 13.5445 5.68628 13.3965 5.27696C13.2486 4.86763 13.0123 4.49593 12.7044 4.18828C12.3966 3.88064 12.0247 3.64461 11.6153 3.49698C11.2058 3.34935 10.7689 3.29375 10.3356 3.33413H3.05357C2.82146 3.33413 2.81604 3.12523 2.83229 3.03239C2.89761 2.40301 3.20636 1.8241 3.69264 1.41924C3.96719 1.23522 4.27581 1.10803 4.6003 1.04518C4.92479 0.982324 5.25858 0.985081 5.58199 1.05329L13.753 2.19835C14.0837 2.22241 14.4062 2.31243 14.7016 2.46311C14.997 2.6138 15.2592 2.82209 15.4729 3.07572C15.6573 3.3501 15.7847 3.65872 15.8475 3.98327C15.9104 4.30782 15.9074 4.64169 15.8388 4.96507ZM12.3974 6.55656V13.2629C12.4373 13.543 12.4115 13.8286 12.322 14.097C12.2325 14.3655 12.0818 14.6094 11.8818 14.8095C11.6818 15.0097 11.438 15.1606 11.1696 15.2503C10.9013 15.34 10.6157 15.366 10.3356 15.3264H2.08181C1.8015 15.3664 1.51571 15.3407 1.24708 15.2512C0.97844 15.1617 0.734342 15.0108 0.534118 14.8106C0.333894 14.6104 0.183048 14.3663 0.0935292 14.0976C0.00401059 13.829 -0.0217205 13.5432 0.0183746 13.2629V6.55656C-0.0214535 6.27637 0.00447734 5.99075 0.0941151 5.72232C0.183753 5.45389 0.334637 5.21 0.534827 5.00996C0.735017 4.80992 0.979017 4.65922 1.24752 4.56978C1.51602 4.48034 1.80165 4.45463 2.08181 4.49467H10.3356C10.6156 4.45506 10.9009 4.48109 11.1692 4.57071C11.4374 4.66032 11.6811 4.81106 11.8811 5.01103C12.081 5.211 12.2318 5.45472 12.3214 5.72294C12.411 5.99116 12.437 6.27655 12.3974 6.55656ZM8.72241 9.91051C8.72241 9.75661 8.66127 9.60902 8.55245 9.5002C8.44363 9.39138 8.29603 9.33024 8.14214 9.33024H6.78818V7.97628C6.78818 7.82238 6.72704 7.67479 6.61822 7.56597C6.5094 7.45715 6.36181 7.39601 6.20791 7.39601C6.05401 7.39601 5.90642 7.45715 5.7976 7.56597C5.68878 7.67479 5.62764 7.82238 5.62764 7.97628V9.33024H4.27368C4.11978 9.33024 3.97219 9.39138 3.86337 9.5002C3.75455 9.60902 3.69341 9.75661 3.69341 9.91051C3.69341 10.0644 3.75455 10.212 3.86337 10.3208C3.97219 10.4296 4.11978 10.4908 4.27368 10.4908H5.62764V11.8447C5.62764 11.9986 5.68878 12.1462 5.7976 12.2551C5.90642 12.3639 6.05401 12.425 6.20791 12.425C6.36181 12.425 6.5094 12.3639 6.61822 12.2551C6.72704 12.1462 6.78818 11.9986 6.78818 11.8447V10.4908H8.14214C8.29603 10.4908 8.44363 10.4296 8.55245 10.3208C8.66127 10.212 8.72241 10.0644 8.72241 9.91051Z" fill="#344054"/>
</svg>
