<svg width="24" height="24" viewBox="0 0 24 24" fill="none" xmlns="http://www.w3.org/2000/svg">
<path d="M15.5563 15.5644C17.5348 13.5782 17.5348 10.3661 15.5563 8.37991C13.5669 6.38273 10.3332 6.38273 8.34376 8.37991C6.3653 10.3661 6.3653 13.5782 8.34376 15.5644C10.3332 17.5615 13.5669 17.5616 15.5563 15.5644ZM14.1393 9.79136C15.3404 10.9971 15.3404 12.9471 14.1393 14.1529C12.9316 15.3654 10.9685 15.3654 9.76073 14.1529C8.55965 12.9471 8.55965 10.9971 9.76073 9.79136C10.9685 8.57891 12.9316 8.57891 14.1393 9.79136ZM7 2H17C19.7614 2 22 4.23858 22 7V17C22 19.7614 19.7614 22 17 22H7C4.23858 22 2 19.7614 2 17V7C2 4.23858 4.23858 2 7 2Z" stroke="#344054" stroke-width="2"/>
<rect x="16.125" y="5.125" width="2.39456" height="2.39456" rx="1.19728" fill="#344054"/>
</svg>
