<svg width="24" height="24" viewBox="0 0 24 24" fill="none" xmlns="http://www.w3.org/2000/svg">
<g clip-path="url(#clip0_1_2590)">
<path d="M12.0823 2.58457C12.0182 2.33379 11.7633 2.18233 11.5122 2.24637C10.5013 2.50455 9.66034 3.13891 9.14444 4.03258C9.01497 4.25679 9.0918 4.54343 9.316 4.67285C9.38983 4.71546 9.47041 4.73576 9.54991 4.73576C9.71191 4.73576 9.8695 4.65166 9.95627 4.50129C10.3449 3.82807 10.9799 3.3498 11.7442 3.15466C11.995 3.09068 12.1464 2.83544 12.0823 2.58457Z" fill="#F24236"/>
<path d="M13.1048 2.17872C13.0978 2.17745 13.0907 2.17628 13.0832 2.17516C12.8277 2.13597 12.5901 2.31123 12.5505 2.5667C12.5109 2.8217 12.6864 3.06076 12.9408 3.10169C12.9679 3.10642 12.9949 3.10867 13.0215 3.10867C13.2437 3.10867 13.441 2.95 13.4821 2.72373C13.5284 2.46901 13.3595 2.22503 13.1048 2.17872Z" fill="#F24236"/>
<path d="M21.6077 14.1936C21.2626 14.0951 20.8895 14.0077 20.4939 13.9322C20.4715 13.9264 20.4487 13.9222 20.4256 13.9198C19.2725 13.7048 17.9335 13.5891 16.5375 13.5891C15.7641 13.5891 15.0087 13.6251 14.292 13.6932L17.1884 8.67669C17.9154 7.4174 18.1072 5.94543 17.7284 4.53182C17.3496 3.1183 16.4475 1.93944 15.1882 1.21246C12.5788 -0.294011 9.23039 0.603083 7.72397 3.21238L4.22789 9.2676C4.22756 9.26811 4.22719 9.26854 4.2269 9.26905C4.22662 9.26957 4.22639 9.27008 4.22611 9.2706L0.729983 15.3261C0.00290479 16.5853 -0.188861 18.0573 0.189889 19.4709C0.568639 20.8844 1.4708 22.0633 2.73009 22.7903C3.5633 23.2713 4.49897 23.5186 5.448 23.5186C5.84784 23.5186 6.25012 23.4748 6.648 23.3859C7.70686 23.1495 8.65879 22.613 9.39694 21.8481C9.7679 22.2709 10.4583 22.6282 11.4632 22.9153C12.8249 23.3043 14.6268 23.5186 16.5373 23.5186C18.4477 23.5186 20.2498 23.3043 21.6114 22.9153C23.1962 22.4625 23.9998 21.8355 23.9998 21.0516V16.0589C23.9999 16.058 24 16.0571 24 16.0561C24 15.2738 23.1951 14.6472 21.6077 14.1936ZM16.5375 14.5265C17.2754 14.5266 17.9942 14.5603 18.6745 14.6241L12.72 17.2522C12.3667 17.1836 12.0332 17.1053 11.7249 17.0172C10.3201 16.6158 10.0125 16.1873 10.0125 16.056C10.0125 15.9248 10.3201 15.4963 11.7249 15.0948C13.0077 14.7284 14.7168 14.5265 16.5375 14.5265ZM8.53575 3.68113C9.78375 1.51949 12.5578 0.776286 14.7195 2.02429C15.7619 2.62611 16.5089 3.60285 16.8229 4.77449C17.1369 5.94618 16.9784 7.16554 16.3766 8.20799L13.126 13.838C13.1133 13.84 13.1009 13.8422 13.0882 13.8442L5.27315 9.33191L8.53575 3.68113ZM9.075 16.0536C9.075 16.0545 9.07486 16.0553 9.07486 16.0562V20.7835C7.71529 22.5838 5.16417 23.1132 3.19889 21.9785C2.15644 21.3766 1.40939 20.3999 1.09542 19.2283C0.781452 18.0566 0.94003 16.8372 1.54181 15.7948L4.80445 10.1437L11.706 14.1286C11.6251 14.1497 11.5453 14.1713 11.4672 14.1936C9.88153 14.6467 9.07673 15.2725 9.075 16.0536ZM23.0625 21.0516C23.0625 21.1836 22.7556 21.6136 21.354 22.014C20.0738 22.3798 18.3632 22.5812 16.5375 22.5812C14.7117 22.5812 13.0011 22.3798 11.7208 22.014C10.3192 21.6136 10.0124 21.1836 10.0124 21.0516V17.3361C10.3864 17.554 10.8718 17.7485 11.4673 17.9186C11.8351 18.0237 12.2355 18.1156 12.6602 18.1944C12.6808 18.1996 12.7017 18.2035 12.723 18.2059C13.8593 18.4121 15.171 18.5231 16.5375 18.5231C18.4428 18.5231 20.2435 18.3084 21.6077 17.9187C22.2031 17.7486 22.6884 17.5541 23.0625 17.3362V21.0516ZM23.0625 16.0562V16.0574C23.0606 16.1901 22.7506 16.6171 21.3502 17.0173C20.0674 17.3838 18.3582 17.5857 16.5375 17.5857C15.8314 17.5857 15.1426 17.555 14.4885 17.4964L20.4283 14.8748C20.7542 14.9398 21.0634 15.0131 21.3502 15.095C22.7525 15.4956 23.0614 15.9233 23.0625 16.0554C23.0625 16.0557 23.0625 16.0559 23.0625 16.0562Z" fill="#F24236"/>
</g>
<defs>
<clipPath id="clip0_1_2590">
<rect width="24" height="24" fill="white"/>
</clipPath>
</defs>
</svg>
