<svg width="25" height="25" viewBox="0 0 25 25" fill="none" xmlns="http://www.w3.org/2000/svg">
<path fill-rule="evenodd" clip-rule="evenodd" d="M15.7049 4.9045C16.536 4.32275 17.1029 3.92711 17.5459 3.67379C17.9994 3.41445 18.1653 3.40101 18.2102 3.40297C18.5055 3.4159 18.78 3.55879 18.9599 3.79329C18.9873 3.82896 19.0714 3.97262 19.119 4.49285C19.1655 5.00102 19.1665 5.69235 19.1665 6.70681L19.1665 8.56083L19.1665 14.5608L19.1665 16.4146C19.1665 17.4291 19.1655 18.1204 19.119 18.6286C19.0714 19.1488 18.9873 19.2924 18.9599 19.3281C18.78 19.5626 18.5055 19.7055 18.2102 19.7184C18.1653 19.7204 17.9994 19.707 17.5459 19.4476C17.1029 19.1943 16.536 18.7987 15.7049 18.2169L11.1665 15.0401L11.1665 8.08136L15.7049 4.9045ZM21.1665 15.4348L21.1665 16.4146L21.1665 16.4645L21.1665 16.4646C21.1665 17.4167 21.1665 18.2004 21.1107 18.8108C21.055 19.4197 20.9325 20.0427 20.5466 20.5456C20.0069 21.2491 19.1835 21.6778 18.2977 21.7165C17.6644 21.7442 17.0838 21.4873 16.553 21.1838C16.0209 20.8795 15.3788 20.43 14.5989 19.884L14.558 19.8554L10.1665 16.7814L10.1665 20.0611C10.1665 21.4418 9.04722 22.5611 7.6665 22.5611C6.28579 22.5611 5.1665 21.4418 5.1665 20.0611L5.1665 16.4609C2.88426 15.9977 1.1665 13.9799 1.1665 11.561C1.1665 8.79953 3.40508 6.56095 6.1665 6.56095L9.85093 6.56095L14.558 3.26603L14.5989 3.23741L14.5989 3.2374C15.3788 2.6914 16.0209 2.24193 16.553 1.93764C17.0838 1.63407 17.6644 1.37717 18.2977 1.40489C19.1835 1.44365 20.0069 1.87233 20.5466 2.57583C20.9325 3.07876 21.055 3.70167 21.1107 4.31064C21.1665 4.92104 21.1665 5.7048 21.1665 6.65689L21.1665 6.70681L21.1665 7.68685C22.8917 8.13089 24.1665 9.69699 24.1665 11.5608C24.1665 13.4247 22.8917 14.9908 21.1665 15.4348ZM21.1665 13.2933C21.7643 12.9475 22.1665 12.3011 22.1665 11.5608C22.1665 10.8205 21.7643 10.1742 21.1665 9.82839L21.1665 13.2933ZM9.1665 8.56095L6.1665 8.56095C4.50965 8.56095 3.1665 9.9041 3.1665 11.561C3.1665 13.2178 4.50965 14.5609 6.1665 14.561L9.1665 14.5609L9.1665 8.56095ZM7.1665 16.5611L7.1665 20.0611C7.1665 20.3372 7.39036 20.5611 7.6665 20.5611C7.94265 20.5611 8.1665 20.3372 8.1665 20.0611L8.1665 16.5611L7.1665 16.5611Z" fill="#344054"/>
</svg>
