<svg width="24" height="24" viewBox="0 0 24 24" fill="none" xmlns="http://www.w3.org/2000/svg">
<g clip-path="url(#clip0_1_2609)">
<path fill-rule="evenodd" clip-rule="evenodd" d="M16.4782 2.17922H7.52217C7.52217 2.84002 7.50811 3.41647 7.45187 3.48677C7.36751 3.55707 7.28315 3.59925 7.18473 3.59925C7.08631 3.59925 6.9879 3.55707 6.9176 3.48677L5.49756 2.06674C5.35696 1.92614 5.35696 1.68712 5.49756 1.53247L6.9176 0.126491C7.05819 -0.0281663 7.29721 -0.0281663 7.45187 0.126491C7.45187 0.126491 7.47999 0.73106 7.50811 1.43405H16.4923C16.5063 0.73106 16.5345 0.126491 16.5485 0.126491C16.6891 -0.0281663 16.9281 -0.0281663 17.0687 0.126491L18.4747 1.51841C18.5591 1.58871 18.6013 1.68712 18.6013 1.7996C18.6013 1.92614 18.545 2.02456 18.4607 2.09486L17.0687 3.48677C16.9984 3.55707 16.9141 3.59925 16.8157 3.59925C16.7172 3.59925 16.6188 3.55707 16.5485 3.48677C16.4782 3.41647 16.4642 2.84002 16.4782 2.17922ZM13.4976 16.9701H11.9932H10.5028C10.2919 16.9701 10.1232 16.8154 10.1232 16.6045C10.1232 16.3936 10.2919 16.2249 10.5028 16.2249H11.6276V7.775H7.76118V8.29521C7.76118 8.5061 7.60652 8.67482 7.39563 8.67482C7.18473 8.67482 7.01601 8.5061 7.01601 8.29521V7.39538V7.38132V7.36726V7.3532V7.33914L7.03007 7.32509V7.31103V7.29697V7.28291L7.04413 7.26885V7.25479L7.05819 7.24073V7.22667V7.21261H7.07225V7.19855L7.08631 7.18449V7.17043L7.10037 7.15637L7.11443 7.14231H7.12849V7.12825L7.14255 7.11419L7.15661 7.10013H7.17067V7.08607H7.18473V7.07201H7.19879H7.21285V7.05795H7.22691H7.24097V7.04389H7.25503H7.26909L7.28315 7.02983H7.29721H7.31127H7.32533H7.33939V7.01577H7.35345H7.36751H7.38157H7.39563H11.9932H16.5907H16.6048C16.8016 7.01577 16.9703 7.18449 16.9703 7.39538V8.29521C16.9703 8.5061 16.8016 8.67482 16.6048 8.67482C16.3939 8.67482 16.2252 8.5061 16.2252 8.29521V7.775H12.3728V16.2249H13.4976C13.7085 16.2249 13.8772 16.3936 13.8772 16.6045C13.8772 16.8154 13.7085 16.9701 13.4976 16.9701ZM21.9756 18.5448C21.9615 18.5307 21.9475 18.5166 21.9334 18.4885L20.5134 17.0826C20.3587 16.9279 20.3587 16.6889 20.5134 16.5483C20.5696 16.478 21.1601 16.478 21.8209 16.478V7.53598C21.1601 7.52192 20.5556 7.4938 20.5134 7.45162C20.3728 7.29697 20.3728 7.05795 20.5134 6.91735L21.9053 5.51138C21.9756 5.44108 22.074 5.3989 22.1865 5.3989H22.2005C22.299 5.3989 22.3974 5.42702 22.4536 5.49732L23.8737 6.91735C24.0283 7.05795 24.0283 7.29697 23.8737 7.45162C23.8034 7.52192 23.7049 7.5641 23.6065 7.5641C23.48 7.5641 23.0582 7.55004 22.5661 7.55004V16.492C23.255 16.5061 23.8596 16.5483 23.8737 16.5483C24.0143 16.6889 24.0143 16.9279 23.8737 17.0826L22.4817 18.4604C22.4255 18.5448 22.3411 18.5869 22.2427 18.601H22.2287H22.2146H22.2005H22.1865H22.1724H22.1584C22.1021 18.601 22.0459 18.5729 22.0037 18.5448H21.9897H21.9756ZM1.58895 18.5448C1.57489 18.5307 1.56083 18.5166 1.53271 18.4885L0.126735 17.0826C-0.0279221 16.9279 -0.0279221 16.6889 0.126735 16.5483C0.182974 16.478 0.759424 16.478 1.43429 16.478V7.52192C0.759424 7.4938 0.140795 7.47974 0.126735 7.45162C-0.0279221 7.29697 -0.0279221 7.05795 0.126735 6.91735L1.53271 5.49732C1.58895 5.45514 1.64519 5.41296 1.71549 5.3989H1.72955H1.74361H1.75767H1.77173H1.78579H1.79985H1.81391H1.82797H1.84203H1.85608H1.87014H1.8842C1.9545 5.41296 2.0248 5.45514 2.06698 5.49732L3.48702 6.91735C3.62761 7.05795 3.62761 7.29697 3.48702 7.45162C3.40266 7.52192 3.3183 7.5641 3.21988 7.5641C3.09334 7.5641 2.67155 7.55004 2.17946 7.53598V16.492C2.86839 16.5061 3.47296 16.5483 3.48702 16.5483C3.62761 16.6889 3.62761 16.9279 3.48702 17.0826L2.06698 18.4885C2.05292 18.5166 2.0248 18.5307 2.01074 18.5448H1.99668C1.94044 18.5729 1.89826 18.601 1.84203 18.601H1.82797H1.81391H1.79985H1.78579H1.77173C1.71549 18.601 1.65925 18.5729 1.61707 18.5448H1.60301H1.58895ZM7.18473 23.9859C7.08631 23.9859 6.9879 23.9437 6.9176 23.8734L5.49756 22.4534C5.45538 22.4112 5.4132 22.3409 5.39914 22.2847V22.2706V22.2565V22.2425V22.2284V22.2144H5.38508V22.2003V22.1862V22.1722L5.39914 22.1581V22.1441V22.13V22.1159V22.1019C5.4132 22.0456 5.45538 21.9753 5.49756 21.9332L6.9176 20.5131C7.05819 20.3585 7.29721 20.3585 7.45187 20.5131C7.45187 20.5131 7.47999 21.1177 7.50811 21.8207H16.4923C16.5063 21.1177 16.5345 20.5272 16.5485 20.5131C16.6891 20.3725 16.9281 20.3725 17.0687 20.5131L18.4607 21.891C18.545 21.9613 18.6013 22.0738 18.6013 22.1862C18.6013 22.2565 18.5872 22.3268 18.5591 22.369V22.3831C18.531 22.4112 18.5169 22.4393 18.4888 22.4534L17.0687 23.8734C16.9984 23.9437 16.9141 23.9859 16.8157 23.9859C16.7172 23.9859 16.6188 23.9437 16.5485 23.8734C16.4782 23.8172 16.4642 23.2267 16.4782 22.5659H7.52217C7.52217 23.2267 7.50811 23.8031 7.45187 23.8734C7.36751 23.9437 7.28315 23.9859 7.18473 23.9859Z" fill="#F24236"/>
</g>
<defs>
<clipPath id="clip0_1_2609">
<rect width="24" height="24" fill="white"/>
</clipPath>
</defs>
</svg>
