<svg width="24" height="24" viewBox="0 0 24 24" fill="none" xmlns="http://www.w3.org/2000/svg">
<path d="M12 11C13.3738 11 14.5632 10.5073 15.5353 9.53511C16.5071 8.56312 17 7.37382 17 5.99984C17 4.62634 16.5073 3.43688 15.5352 2.46457C14.563 1.49273 13.3736 1 12 1C10.6261 1 9.43681 1.49273 8.46484 2.46473C7.49287 3.43673 7 4.62618 7 5.99984C7 7.37382 7.49287 8.56327 8.46484 9.53527C9.43712 10.5071 10.6265 11 12 11ZM9.32515 3.32491C10.071 2.57908 10.9458 2.21654 12 2.21654C13.054 2.21654 13.929 2.57908 14.675 3.32491C15.4208 4.07089 15.7835 4.94596 15.7835 5.99984C15.7835 7.05404 15.4208 7.92895 14.675 8.67493C13.929 9.42092 13.054 9.78346 12 9.78346C10.9462 9.78346 10.0713 9.42076 9.32515 8.67493C8.57919 7.92911 8.2165 7.05404 8.2165 5.99984C8.2165 4.94596 8.57919 4.07089 9.32515 3.32491Z" fill="#8C8FA5"/>
<path d="M20.9564 17.0837C20.9272 16.6691 20.8683 16.2168 20.7816 15.7392C20.694 15.258 20.5812 14.8031 20.4463 14.3874C20.3067 13.9577 20.1172 13.5333 19.8827 13.1267C19.6396 12.7046 19.3538 12.337 19.0332 12.0346C18.6979 11.7182 18.2873 11.4638 17.8126 11.2783C17.3396 11.0937 16.8153 11.0002 16.2545 11.0002C16.0343 11.0002 15.8213 11.0893 15.4099 11.3534C15.1568 11.5162 14.8606 11.7046 14.5301 11.9128C14.2475 12.0904 13.8646 12.2568 13.3917 12.4075C12.9303 12.5547 12.4619 12.6294 11.9993 12.6294C11.5371 12.6294 11.0687 12.5547 10.607 12.4075C10.1346 12.257 9.75152 12.0906 9.46939 11.913C9.142 11.7067 8.84571 11.5184 8.58877 11.3533C8.17775 11.0891 7.96476 11 7.74452 11C7.18355 11 6.65945 11.0937 6.18655 11.2784C5.71216 11.4636 5.30148 11.718 4.96585 12.0348C4.64521 12.3374 4.35946 12.7047 4.1165 13.1267C3.88227 13.5333 3.69265 13.9575 3.55307 14.3876C3.41826 14.8033 3.3055 15.258 3.21793 15.7392C3.13102 16.2161 3.07226 16.6686 3.04313 17.0842C3.01449 17.4905 3 17.9134 3 18.3407C3 19.4514 3.35801 20.3506 4.06399 21.0138C4.76125 21.6682 5.68369 22 6.80579 22H17.1942C18.316 22 19.2384 21.6682 19.9358 21.0138C20.642 20.3511 21 19.4516 21 18.3405C20.9998 17.9118 20.9852 17.4889 20.9564 17.0837ZM19.0641 20.1104C18.6034 20.5428 17.9917 20.7531 17.194 20.7531H6.80579C6.00796 20.7531 5.39629 20.5428 4.93573 20.1105C4.4839 19.6863 4.26432 19.1073 4.26432 18.3407C4.26432 17.942 4.27765 17.5483 4.30431 17.1704C4.33032 16.7996 4.38349 16.3923 4.46233 15.9595C4.54019 15.532 4.63928 15.1309 4.75714 14.7678C4.87022 14.4195 5.02445 14.0747 5.21572 13.7426C5.39827 13.426 5.6083 13.1544 5.84006 12.9356C6.05684 12.7309 6.33008 12.5633 6.65205 12.4377C6.94981 12.3214 7.28445 12.2578 7.64773 12.2482C7.69201 12.2714 7.77085 12.3158 7.89859 12.3979C8.15849 12.565 8.45807 12.7555 8.78925 12.9642C9.16257 13.1989 9.64354 13.4109 10.2182 13.5939C10.8056 13.7812 11.4048 13.8763 11.9995 13.8763C12.5942 13.8763 13.1935 13.7812 13.7807 13.594C14.3558 13.4107 14.8366 13.1989 15.2104 12.9638C15.5493 12.7502 15.8405 12.5651 16.1004 12.3979C16.2282 12.3159 16.307 12.2714 16.3513 12.2482C16.7147 12.2578 17.0494 12.3214 17.3473 12.4377C17.6691 12.5633 17.9423 12.731 18.1591 12.9356C18.3909 13.1543 18.6009 13.4258 18.7835 13.7427C18.9749 14.0747 19.1293 14.4197 19.2422 14.7676C19.3602 15.1312 19.4595 15.5322 19.5372 15.9593C19.6159 16.3929 19.6692 16.8004 19.6952 17.1705V17.1709C19.722 17.5473 19.7355 17.9408 19.7357 18.3407C19.7355 19.1074 19.5159 19.6863 19.0641 20.1104Z" fill="#8C8FA5"/>
</svg>
