<svg width="24" height="24" viewBox="0 0 24 24" fill="none" xmlns="http://www.w3.org/2000/svg">
<g clip-path="url(#clip0_1_2618)">
<path d="M8.29732 7.78479H6.7152C6.38197 7.78479 6.11084 8.05587 6.11084 8.3891V11.7794C6.11084 12.1126 6.38192 12.3837 6.7152 12.3837H8.29732C8.63056 12.3837 8.90168 12.1126 8.90168 11.7794V8.3891C8.90164 8.05587 8.63056 7.78479 8.29732 7.78479ZM8.19851 11.6806H6.81396V8.48796H8.19851V11.6806Z" fill="#F24236"/>
<path d="M17.2846 7.78479H15.7025C15.3693 7.78479 15.0981 8.05587 15.0981 8.3891V11.7794C15.0981 12.1126 15.3692 12.3837 15.7025 12.3837H17.2846C17.6179 12.3837 17.889 12.1126 17.889 11.7794V8.3891C17.889 8.05587 17.6179 7.78479 17.2846 7.78479ZM17.1859 11.6806H15.8013V8.48796H17.1859V11.6806Z" fill="#F24236"/>
<path d="M2.12466 15.4312C1.96364 15.2317 1.875 14.9809 1.875 14.7248V12.1547C1.875 11.9605 1.71764 11.8031 1.52344 11.8031C1.32923 11.8031 1.17188 11.9605 1.17188 12.1547V14.7248C1.17188 15.141 1.31592 15.5487 1.57753 15.8728L5.23148 20.4001C5.64066 20.9067 5.81644 21.5661 5.71369 22.2095L5.49389 23.5933C5.46347 23.7851 5.5942 23.9652 5.78592 23.9957C5.80458 23.9986 5.82319 24.0001 5.84152 24.0001C6.01139 24.0001 6.16083 23.8767 6.1883 23.7036L6.40805 22.3202C6.54211 21.4806 6.3127 20.6198 5.77852 19.9585L2.12466 15.4312Z" fill="#F24236"/>
<path d="M21.9785 7.46361C21.0477 7.46361 20.2903 8.22087 20.2903 9.15176V12.7104C20.0099 12.5644 19.6868 12.5264 19.384 12.5961V4.6664H20.062C20.292 4.6664 20.5044 4.54162 20.6163 4.34071C20.7282 4.1398 20.7225 3.89352 20.6013 3.69801L18.5796 0.434015C18.4111 0.162234 18.1198 0 17.8003 0H16.2698C16.0756 0 15.9183 0.157359 15.9183 0.351562C15.9183 0.545765 16.0756 0.703124 16.2698 0.703124H17.8003C17.8736 0.703124 17.9432 0.741936 17.9819 0.804327L19.9386 3.96327H8.85655C8.66234 3.96327 8.50499 4.12063 8.50499 4.31484C8.50499 4.50904 8.66234 4.6664 8.85655 4.6664H18.6809V5.56949H5.31909V4.6664H7.21597C7.41017 4.6664 7.56753 4.50904 7.56753 4.31484C7.56753 4.12063 7.41017 3.96327 7.21597 3.96327H4.06138L6.01804 0.80442C6.05676 0.741936 6.12636 0.703124 6.19968 0.703124H14.6292C14.8234 0.703124 14.9808 0.545765 14.9808 0.351562C14.9808 0.157359 14.8234 0 14.6292 0H6.19968C5.88018 0 5.58885 0.162234 5.42034 0.434108L3.39862 3.69801C3.2775 3.89352 3.27178 4.1398 3.38367 4.34071C3.49556 4.54162 3.70795 4.6664 3.93796 4.6664H4.61596V12.5962C4.31324 12.5265 3.99004 12.5644 3.70968 12.7104V9.15186C3.70968 8.70125 3.53423 8.27731 3.21506 7.95753C2.89579 7.63888 2.47186 7.46338 2.02125 7.46338C1.55292 7.46338 1.17188 7.84461 1.17188 8.31322V10.514C1.17188 10.7082 1.32923 10.8656 1.52344 10.8656C1.71764 10.8656 1.875 10.7082 1.875 10.514V8.31322C1.875 8.23231 1.94058 8.1665 2.02125 8.1665C2.28426 8.1665 2.53186 8.26906 2.71786 8.45469C2.90404 8.6412 3.00651 8.88879 3.00651 9.15181V13.8085C2.99015 14.1463 3.10453 14.4898 3.35236 14.7595L6.05582 17.7013C6.18721 17.8442 6.40958 17.8536 6.5526 17.7223C6.69557 17.5909 6.70494 17.3685 6.57355 17.2255L3.87009 14.2836C3.64814 14.0419 3.65667 13.6695 3.89062 13.4388C4.12692 13.2056 4.51096 13.206 4.74665 13.4398L8.597 17.2576C9.12041 17.7766 9.42055 18.497 9.42055 19.234V23.6484C9.42055 23.8426 9.5779 24 9.77211 24C9.96631 24 10.1237 23.8426 10.1237 23.6484V19.2341C10.1237 18.3109 9.74769 17.4085 9.09209 16.7583L8.60919 16.2795H15.3908L14.9079 16.7584C14.2523 17.4085 13.8763 18.3109 13.8763 19.2341V23.6484C13.8763 23.8426 14.0336 24 14.2278 24C14.4221 24 14.5794 23.8426 14.5794 23.6484V19.2341C14.5794 18.497 14.8795 17.7766 15.4029 17.2577L19.2533 13.4398C19.489 13.206 19.873 13.2057 20.1093 13.4388C20.3433 13.6697 20.3518 14.042 20.1299 14.2837L17.4264 17.2256C17.295 17.3686 17.3044 17.591 17.4474 17.7224C17.5904 17.8538 17.8127 17.8443 17.9441 17.7014L20.6476 14.7595C20.8951 14.4902 21.0096 14.1471 20.9935 13.8096V9.15176C20.9935 8.60862 21.4354 8.16673 21.9786 8.16673C22.0592 8.16673 22.1249 8.23236 22.1249 8.31308V14.725C22.1249 14.981 22.0363 15.2318 21.8755 15.431L18.2214 19.9584C17.6875 20.6198 17.4581 21.4804 17.5916 22.3197L17.8119 23.7036C17.8395 23.8766 17.9889 24 18.1587 24C18.1771 24 18.1956 23.9985 18.2144 23.9955C18.4061 23.965 18.5368 23.7848 18.5064 23.5931L18.2861 22.2092C18.1837 21.5661 18.3595 20.9067 18.7685 20.4L22.4227 15.8725C22.6841 15.5486 22.828 15.1411 22.828 14.7249V8.31308C22.8279 7.8447 22.4469 7.46361 21.9785 7.46361ZM14.3062 15.5764V14.5922C14.3062 14.398 14.1489 14.2406 13.9547 14.2406C13.7605 14.2406 13.6031 14.398 13.6031 14.5922V15.5764H10.3969V8.48811H13.6031V11.6806H12.7233C12.5291 11.6806 12.3717 11.8379 12.3717 12.0321C12.3717 12.2263 12.5291 12.3837 12.7233 12.3837H13.6031V12.9515C13.6031 13.1457 13.7605 13.3031 13.9547 13.3031C14.1489 13.3031 14.3062 13.1457 14.3062 12.9515V8.37092C14.3062 8.04781 14.0434 7.78498 13.7203 7.78498H10.2797C9.95656 7.78498 9.69373 8.04781 9.69373 8.37092V15.5764H7.90006L5.31909 13.0172V6.27257H18.6809V13.0172L16.0999 15.5764H14.3062Z" fill="#F24236"/>
</g>
<defs>
<clipPath id="clip0_1_2618">
<rect width="24" height="24" fill="white"/>
</clipPath>
</defs>
</svg>
