<svg width="24" height="24" viewBox="0 0 24 24" fill="none" xmlns="http://www.w3.org/2000/svg">
<path d="M7.19611 4.19606L5.00275 6.39609L4.14274 5.52941C4.0172 5.40388 3.84694 5.33335 3.6694 5.33335C3.49187 5.33335 3.3216 5.40388 3.19606 5.52941C3.07053 5.65495 3 5.82522 3 6.00275C3 6.18029 3.07053 6.35055 3.19606 6.47609L4.52941 7.80944C4.59139 7.87193 4.66512 7.92153 4.74637 7.95537C4.82761 7.98922 4.91474 8.00664 5.00275 8.00664C5.09076 8.00664 5.1779 7.98922 5.25914 7.95537C5.34038 7.92153 5.41412 7.87193 5.47609 7.80944L8.14279 5.14274C8.20495 5.08058 8.25426 5.00679 8.2879 4.92557C8.32154 4.84436 8.33886 4.75731 8.33886 4.6694C8.33886 4.5815 8.32154 4.49445 8.2879 4.41323C8.25426 4.33202 8.20495 4.25822 8.14279 4.19606C8.08063 4.1339 8.00684 4.0846 7.92562 4.05096C7.84441 4.01731 7.75736 4 7.66945 4C7.58155 4 7.4945 4.01731 7.41328 4.05096C7.33207 4.0846 7.25827 4.1339 7.19611 4.19606Z" fill="#F24236"/>
<path d="M7.0033 10.0027H4.3366C4.15978 10.0027 3.99021 10.0729 3.86519 10.198C3.74016 10.323 3.66992 10.4925 3.66992 10.6694V13.3361C3.66992 13.5129 3.74016 13.6824 3.86519 13.8075C3.99021 13.9325 4.15978 14.0027 4.3366 14.0027H7.0033C7.18011 14.0027 7.34968 13.9325 7.47471 13.8075C7.59973 13.6824 7.66997 13.5129 7.66997 13.3361V10.6694C7.66997 10.4925 7.59973 10.323 7.47471 10.198C7.34968 10.0729 7.18011 10.0027 7.0033 10.0027ZM6.33662 12.6694H5.00327V11.336H6.33662V12.6694Z" fill="#F24236"/>
<path d="M7.0033 16.0028H4.3366C4.15978 16.0028 3.99021 16.073 3.86519 16.1981C3.74016 16.3231 3.66992 16.4927 3.66992 16.6695V19.3362C3.66992 19.513 3.74016 19.6826 3.86519 19.8076C3.99021 19.9326 4.15978 20.0029 4.3366 20.0029H7.0033C7.18011 20.0029 7.34968 19.9326 7.47471 19.8076C7.59973 19.6826 7.66997 19.513 7.66997 19.3362V16.6695C7.66997 16.4927 7.59973 16.3231 7.47471 16.1981C7.34968 16.073 7.18011 16.0028 7.0033 16.0028ZM6.33662 18.6695H5.00327V17.3362H6.33662V18.6695Z" fill="#F24236"/>
<path d="M21.0034 11.6694H10.3366C10.1598 11.6694 9.99021 11.7397 9.86519 11.8647C9.74016 11.9897 9.66992 12.1593 9.66992 12.3361C9.66992 12.5129 9.74016 12.6825 9.86519 12.8075C9.99021 12.9325 10.1598 13.0028 10.3366 13.0028H21.0034C21.1802 13.0028 21.3498 12.9325 21.4748 12.8075C21.5998 12.6825 21.6701 12.5129 21.6701 12.3361C21.6701 12.1593 21.5998 11.9897 21.4748 11.8647C21.3498 11.7397 21.1802 11.6694 21.0034 11.6694Z" fill="#F24236"/>
<path d="M21.0034 17.6694H10.3366C10.1598 17.6694 9.99021 17.7397 9.86519 17.8647C9.74016 17.9897 9.66992 18.1593 9.66992 18.3361C9.66992 18.5129 9.74016 18.6825 9.86519 18.8075C9.99021 18.9325 10.1598 19.0028 10.3366 19.0028H21.0034C21.1802 19.0028 21.3498 18.9325 21.4748 18.8075C21.5998 18.6825 21.6701 18.5129 21.6701 18.3361C21.6701 18.1593 21.5998 17.9897 21.4748 17.8647C21.3498 17.7397 21.1802 17.6694 21.0034 17.6694Z" fill="#F24236"/>
<path d="M10.3366 7.00278H21.0034C21.1802 7.00278 21.3498 6.93254 21.4748 6.80752C21.5998 6.68249 21.6701 6.51292 21.6701 6.33611C21.6701 6.1593 21.5998 5.98972 21.4748 5.8647C21.3498 5.73967 21.1802 5.66943 21.0034 5.66943H10.3366C10.1598 5.66943 9.99021 5.73967 9.86519 5.8647C9.74016 5.98972 9.66992 6.1593 9.66992 6.33611C9.66992 6.51292 9.74016 6.68249 9.86519 6.80752C9.99021 6.93254 10.1598 7.00278 10.3366 7.00278Z" fill="#F24236"/>
</svg>
