<svg width="127" height="24" viewBox="0 0 127 24" fill="none" xmlns="http://www.w3.org/2000/svg">
<path d="M26.7334 0H5.60432C2.50949 0 0 2.5431 0 5.67938V24H17.7497C17.7497 20.8626 15.2402 18.3206 12.1454 18.3206H5.6054V5.67938H21.1291C24.225 5.67938 26.7334 3.13628 26.7334 0Z" fill="#F24236"/>
<path d="M11.4951 14.84H21.1289V23.9998C24.2248 23.9998 26.7332 21.4567 26.7332 18.3204V9.16064H17.0994C14.0035 9.16064 11.4951 11.7037 11.4951 14.84Z" fill="#F24236"/>
<path d="M44.9142 7.23938C44.5359 6.75108 44.082 6.36328 43.5495 6.07707C42.7346 5.64011 41.7935 5.42163 40.7274 5.42163C39.5514 5.42163 38.4885 5.67616 37.5399 6.18413C36.5913 6.69318 35.8303 7.41198 35.2589 8.34161C34.6865 9.27124 34.4009 10.3636 34.4009 11.6188C34.4009 12.874 34.6865 13.9423 35.2589 14.872C35.8313 15.8016 36.5913 16.5248 37.5399 17.0415C38.4885 17.5582 39.5514 17.816 40.7274 17.816C41.7935 17.816 42.7346 17.5931 43.5495 17.1485C43.9958 16.9049 44.3871 16.5881 44.7256 16.2036V16.7673C44.7256 17.9274 44.4313 18.8013 43.8438 19.389C43.2553 19.9768 42.311 20.2706 41.0099 20.2706C40.21 20.2706 39.3983 20.1395 38.5758 19.8773C37.7523 19.6152 37.0742 19.2612 36.5417 18.8166L35.0832 21.4864C35.8206 22.0742 36.7411 22.5155 37.8471 22.8093C38.9531 23.1032 40.1011 23.2507 41.2934 23.2507C43.583 23.2507 45.339 22.6859 46.5624 21.5585C47.7859 20.4301 48.3971 18.6746 48.3971 16.291V5.61171H44.9164V7.23829L44.9142 7.23938ZM44.3494 13.264C44.067 13.7402 43.6746 14.1106 43.1733 14.3727C42.671 14.6349 42.0986 14.766 41.4561 14.766C40.8137 14.766 40.2413 14.6349 39.7389 14.3727C39.2366 14.1106 38.841 13.7413 38.551 13.264C38.2611 12.7877 38.1155 12.2393 38.1155 11.6188C38.1155 10.9983 38.26 10.4314 38.551 9.96273C38.841 9.49409 39.2366 9.12814 39.7389 8.86596C40.2402 8.60379 40.8126 8.4727 41.4561 8.4727C42.0997 8.4727 42.671 8.60379 43.1733 8.86596C43.6746 9.12814 44.067 9.49409 44.3494 9.96273C44.6318 10.4314 44.773 10.9841 44.773 11.6188C44.773 12.2535 44.6318 12.7866 44.3494 13.264Z" fill="#333333"/>
<path d="M55.475 0.74939H51.8057V18.4353H55.475V0.74939Z" fill="#333333"/>
<path d="M68.4819 6.26714C67.4309 5.70346 66.2397 5.42053 64.9063 5.42053C63.5729 5.42053 62.3623 5.70237 61.3199 6.26714C60.2765 6.83191 59.454 7.6097 58.8503 8.60269C58.2467 9.59568 57.9448 10.7361 57.9448 12.023C57.9448 13.3098 58.2467 14.4263 58.8503 15.4193C59.454 16.4122 60.2765 17.1955 61.3199 17.7668C62.3623 18.3392 63.5578 18.6244 64.9063 18.6244C66.2548 18.6244 67.4309 18.3381 68.4819 17.7668C69.5318 17.1944 70.3554 16.4122 70.9515 15.4193C71.5476 14.4263 71.8451 13.2945 71.8451 12.023C71.8451 10.7514 71.5476 9.57602 70.9515 8.59067C70.3554 7.60533 69.5318 6.83082 68.4819 6.26714ZM67.7058 13.9183C67.4233 14.4514 67.0396 14.86 66.5534 15.1462C66.0673 15.4324 65.5186 15.5755 64.9074 15.5755C64.2962 15.5755 63.7464 15.4324 63.2613 15.1462C62.7752 14.86 62.3871 14.4514 62.0971 13.9183C61.8072 13.3863 61.6616 12.7549 61.6616 12.023C61.6616 11.2911 61.8061 10.64 62.0971 10.1157C62.3871 9.59131 62.7752 9.18603 63.2613 8.89982C63.7475 8.61361 64.2962 8.47051 64.9074 8.47051C65.5186 8.47051 66.0673 8.61361 66.5534 8.89982C67.0396 9.18603 67.4233 9.59131 67.7058 10.1157C67.9882 10.64 68.1294 11.2758 68.1294 12.023C68.1294 12.7702 67.9882 13.3852 67.7058 13.9183Z" fill="#333333"/>
<path d="M79.9827 15.6704C79.4965 15.6704 79.1128 15.524 78.8304 15.2291C78.5479 14.9352 78.4067 14.5179 78.4067 13.9772V8.75663H81.5587V5.89673H78.4067V2.77466H74.7373V5.89673H72.7852V8.75663H74.7373V14.0242C74.7373 15.5492 75.1524 16.6984 75.9835 17.4685C76.8146 18.2397 77.9745 18.6243 79.4642 18.6243C80.0291 18.6243 80.5734 18.5565 81.0984 18.4222C81.6234 18.2878 82.0739 18.0846 82.4512 17.8148L81.4638 15.193C81.0563 15.5109 80.5616 15.6693 79.9816 15.6693L79.9827 15.6704Z" fill="#333333"/>
<path d="M88.0264 7.29717V5.61269H84.522V18.4364H88.1914V12.3823C88.1914 11.1588 88.5007 10.2576 89.1206 9.67751C89.7393 9.09744 90.551 8.80796 91.5546 8.80796C91.6958 8.80796 91.8284 8.81233 91.9545 8.81997C92.0796 8.82871 92.2208 8.83964 92.3781 8.85602V5.42371C91.1859 5.42371 90.1748 5.65857 89.3437 6.12721C88.8101 6.42762 88.3724 6.81979 88.0264 7.29935V7.29717Z" fill="#333333"/>
<path d="M95.8123 14.0023C95.1849 14.0023 94.6481 14.2132 94.2008 14.6337C93.7534 15.0554 93.5303 15.6071 93.5303 16.2898C93.5303 16.9726 93.7534 17.533 94.2008 17.9699C94.6481 18.4069 95.1849 18.6254 95.8123 18.6254C96.4397 18.6254 96.9959 18.4069 97.4357 17.9699C97.8745 17.533 98.0944 16.9726 98.0944 16.2898C98.0944 15.6071 97.8745 15.0543 97.4357 14.6337C96.997 14.2132 96.4559 14.0023 95.8123 14.0023Z" fill="#333333"/>
<path d="M109.501 11.952C109.501 12.7309 109.375 13.3787 109.125 13.8943C108.874 14.411 108.529 14.7922 108.09 15.038C107.652 15.2849 107.149 15.4072 106.585 15.4072C105.769 15.4072 105.139 15.1571 104.691 14.6568C104.244 14.1564 104.021 13.3743 104.021 12.3092V5.61169H100.352V12.8576C100.352 14.1772 100.579 15.2609 101.034 16.1107C101.489 16.9606 102.128 17.5931 102.951 18.0061C103.774 18.419 104.711 18.6254 105.761 18.6254C106.733 18.6254 107.631 18.3993 108.454 17.946C108.934 17.6816 109.344 17.3408 109.689 16.9279V18.4343H113.17V5.61169H109.5V11.952H109.501Z" fill="#333333"/>
<path d="M120.344 15.5755L126.789 7.8522V5.61169H115.875V8.47269H122.156L115.71 16.1949V18.4354H127V15.5755H120.344Z" fill="#333333"/>
</svg>
